<?xml version="1.0" encoding="UTF-8"?>
<svg id="Capa_1" xmlns="http://www.w3.org/2000/svg" version="1.1" viewBox="0 0 209 42">
  <!-- Generator: Adobe Illustrator 29.6.1, SVG Export Plug-In . SVG Version: 2.1.1 Build 9)  -->
  <defs>
    <style>
      .st0 {
        isolation: isolate;
      }
    </style>
  </defs>
  <g class="st0">
    <g class="st0">
      <path d="M5.74,6.87h2.85l7.27,16.32c.63,1.42,1.34,3.4,1.34,3.4h.08s.75-1.98,1.38-3.4l7.27-16.32h2.81l2.21,27.79h-2.73l-1.54-19.45c-.12-1.5-.08-3.87-.08-3.87h-.08s-.83,2.45-1.46,3.87l-6.52,14.27h-2.57l-6.52-14.27c-.63-1.38-1.5-3.95-1.5-3.95h-.08s.04,2.45-.08,3.95l-1.54,19.45h-2.73L5.74,6.87Z"/>
      <path d="M47.91,22.36h1.11v-.51c0-3.83-2.09-5.14-4.94-5.14-3.28,0-5.61,1.9-5.61,1.9l-1.26-2.06s2.61-2.25,7.08-2.25c4.78,0,7.43,2.65,7.43,7.63v12.73h-2.57v-2.17c0-.99.08-1.66.08-1.66h-.08s-1.66,4.31-6.64,4.31c-3.32,0-6.76-1.94-6.76-5.89,0-6.72,8.73-6.88,12.17-6.88ZM42.93,32.84c3.79,0,6.09-3.95,6.09-7.39v-.87h-1.15c-3.12,0-9.37.12-9.37,4.51,0,1.86,1.46,3.75,4.43,3.75Z"/>
      <path d="M57.91,14.77h2.65v3.52c0,.87-.08,1.58-.08,1.58h.08c.95-3,3.16-5.3,6.28-5.3.55,0,1.07.12,1.07.12v2.65s-.47-.08-.99-.08c-2.81,0-4.9,2.21-5.77,5.14-.39,1.26-.55,2.61-.55,3.87v8.38h-2.69V14.77Z"/>
      <path d="M72.74,17.26h-2.61v-2.25h2.65v-5.73h2.65v5.73h4.98v2.25h-4.98v9.88c0,4.66,2.96,5.26,4.47,5.26.55,0,.91-.08.91-.08v2.41s-.44.08-1.15.08c-2.29,0-6.92-.75-6.92-7.39v-10.16Z"/>
      <path d="M85.15,6.87h2.81v3.36h-2.81v-3.36ZM85.23,14.77h2.69v19.88h-2.69V14.77Z"/>
      <path d="M102.81,14.3c5.49,0,8.3,4.23,8.3,9.17,0,.47-.08,1.38-.08,1.38h-15.26c.12,5.1,3.6,7.87,7.71,7.87,3.64,0,6.05-2.41,6.05-2.41l1.23,2.06s-2.89,2.77-7.35,2.77c-5.93,0-10.4-4.27-10.4-10.39,0-6.52,4.43-10.43,9.8-10.43ZM108.39,22.64c-.16-4.15-2.69-6.09-5.65-6.09-3.32,0-6.21,2.1-6.84,6.09h12.49Z"/>
      <path d="M116.06,6.87h2.69v22.49c0,2.61,1.19,3,2.21,3,.36,0,.67-.04.67-.04v2.41s-.47.08-.99.08c-1.66,0-4.59-.51-4.59-4.86V6.87Z"/>
    </g>
  </g>
</svg>